<?xml version="1.0" encoding="UTF-8"?>
<svg xmlns="http://www.w3.org/2000/svg" xmlns:xlink="http://www.w3.org/1999/xlink" width="16px" height="16px" viewBox="0 0 16 16" version="1.1">
<defs>
<clipPath id="clip1">
  <path d="M 0.46875 0.625 L 15.507812 0.625 L 15.507812 15.539062 L 0.46875 15.539062 Z M 0.46875 0.625 "/>
</clipPath>
<linearGradient id="linear0" gradientUnits="userSpaceOnUse" x1="-12.1278" y1="35.0087" x2="134.677" y2="88.4416" spreadMethod="reflect" gradientTransform="matrix(0.121279,0,0,0.120301,0.589956,0.623158)">
<stop offset="0" style="stop-color:rgb(16.078431%,50.196078%,72.54902%);stop-opacity:1;"/>
<stop offset="0.2" style="stop-color:rgb(16.078431%,50.196078%,72.54902%);stop-opacity:1;"/>
<stop offset="0.68" style="stop-color:rgb(75.294118%,22.352941%,16.862745%);stop-opacity:1;"/>
<stop offset="1" style="stop-color:rgb(75.294118%,22.352941%,16.862745%);stop-opacity:1;"/>
</linearGradient>
<clipPath id="clip2">
  <path d="M 10.398438 0.625 L 15.507812 0.625 L 15.507812 6 L 10.398438 6 Z M 10.398438 0.625 "/>
</clipPath>
<clipPath id="clip3">
  <path d="M 0.46875 0.625 L 6 0.625 L 6 6 L 0.46875 6 Z M 0.46875 0.625 "/>
</clipPath>
</defs>
<g id="surface1">
<g clip-path="url(#clip1)" clip-rule="nonzero">
<path style=" stroke:none;fill-rule:evenodd;fill:url(#linear0);" d="M 12.03125 10.675781 C 11.738281 9.609375 10.765625 8.867188 9.65625 8.867188 L 6.382812 8.867188 C 4.386719 8.867188 2.683594 7.4375 2.34375 5.472656 C 1.050781 5.050781 0.34375 3.664062 0.765625 2.375 C 1.097656 1.363281 2.039062 0.679688 3.101562 0.679688 C 4.457031 0.679688 5.5625 1.777344 5.5625 3.132812 C 5.5625 4.140625 4.945312 5.050781 4.007812 5.421875 C 4.300781 6.488281 5.273438 7.230469 6.382812 7.230469 L 9.65625 7.230469 C 10.546875 7.226562 11.410156 7.515625 12.117188 8.046875 L 12.117188 5.453125 C 10.835938 5 10.164062 3.597656 10.617188 2.316406 C 11.070312 1.035156 12.476562 0.367188 13.757812 0.820312 C 15.035156 1.269531 15.707031 2.675781 15.257812 3.953125 C 15.007812 4.65625 14.457031 5.207031 13.757812 5.453125 L 13.757812 10.644531 C 15.039062 11.097656 15.710938 12.5 15.257812 13.78125 C 14.804688 15.0625 13.398438 15.730469 12.117188 15.28125 C 10.839844 14.828125 10.167969 13.421875 10.617188 12.144531 C 10.851562 11.472656 11.371094 10.9375 12.03125 10.675781 Z M 12.9375 12.144531 C 12.484375 12.144531 12.117188 12.507812 12.117188 12.960938 C 12.117188 13.414062 12.484375 13.78125 12.9375 13.78125 C 13.390625 13.78125 13.757812 13.414062 13.757812 12.960938 C 13.757812 12.507812 13.390625 12.144531 12.9375 12.144531 Z M 12.992188 1.25 C 12.441406 1.171875 11.402344 2.425781 11.367188 3.027344 C 11.328125 3.628906 12.226562 4.777344 12.773438 4.859375 C 13.328125 4.9375 14.632812 4.109375 14.667969 3.507812 C 14.703125 2.90625 13.539062 1.332031 12.992188 1.25 Z M 3.15625 1.464844 C 2.703125 1.464844 2.265625 2.542969 2.28125 3.132812 C 2.300781 3.726562 2.8125 5.019531 3.265625 5.019531 C 3.714844 5.019531 3.9375 3.726562 3.921875 3.132812 C 3.90625 2.542969 3.609375 1.464844 3.15625 1.464844 Z M 3.15625 1.464844 "/>
</g>
<g clip-path="url(#clip2)" clip-rule="nonzero">
<path style=" stroke:none;fill-rule:evenodd;fill:rgb(75.294118%,22.352941%,16.862745%);fill-opacity:1;" d="M 12.882812 2.453125 C 12.976562 2.453125 13.042969 2.472656 13.082031 2.507812 C 13.117188 2.550781 13.136719 2.621094 13.136719 2.722656 C 13.136719 2.777344 13.128906 2.820312 13.113281 2.859375 C 13.097656 2.898438 13.078125 2.925781 13.050781 2.949219 C 13.023438 2.972656 12.992188 2.988281 12.953125 3 C 12.921875 3.011719 12.878906 3.015625 12.839844 3.015625 C 12.804688 3.015625 12.78125 3.011719 12.769531 2.996094 C 12.757812 2.984375 12.753906 2.960938 12.753906 2.933594 L 12.753906 2.5625 C 12.753906 2.546875 12.753906 2.53125 12.753906 2.519531 C 12.753906 2.507812 12.757812 2.496094 12.765625 2.484375 C 12.773438 2.476562 12.785156 2.46875 12.804688 2.460938 C 12.820312 2.457031 12.851562 2.453125 12.882812 2.453125 Z M 12.855469 2.078125 C 12.773438 2.078125 12.695312 2.085938 12.621094 2.09375 C 12.546875 2.105469 12.476562 2.121094 12.417969 2.140625 C 12.359375 2.15625 12.3125 2.175781 12.277344 2.195312 C 12.242188 2.21875 12.226562 2.238281 12.226562 2.257812 L 12.226562 3.863281 C 12.226562 3.886719 12.242188 3.90625 12.277344 3.921875 C 12.3125 3.941406 12.382812 3.949219 12.488281 3.949219 C 12.59375 3.949219 12.664062 3.941406 12.699219 3.921875 C 12.734375 3.90625 12.753906 3.886719 12.753906 3.863281 L 12.753906 3.410156 C 12.753906 3.402344 12.757812 3.394531 12.769531 3.394531 L 12.773438 3.394531 C 12.8125 3.394531 12.84375 3.410156 12.867188 3.4375 C 12.894531 3.46875 12.917969 3.503906 12.941406 3.546875 C 12.960938 3.589844 12.984375 3.636719 13.007812 3.683594 C 13.03125 3.734375 13.058594 3.78125 13.09375 3.824219 C 13.128906 3.867188 13.175781 3.902344 13.226562 3.929688 C 13.28125 3.960938 13.347656 3.972656 13.429688 3.972656 C 13.492188 3.972656 13.546875 3.964844 13.597656 3.949219 C 13.652344 3.933594 13.699219 3.910156 13.738281 3.890625 C 13.78125 3.863281 13.8125 3.839844 13.839844 3.8125 C 13.863281 3.789062 13.875 3.765625 13.875 3.75 C 13.875 3.726562 13.867188 3.710938 13.855469 3.707031 C 13.84375 3.699219 13.828125 3.695312 13.8125 3.695312 L 13.777344 3.699219 L 13.757812 3.699219 C 13.707031 3.699219 13.664062 3.679688 13.621094 3.640625 C 13.578125 3.597656 13.539062 3.550781 13.503906 3.5 C 13.46875 3.449219 13.433594 3.402344 13.398438 3.351562 C 13.367188 3.304688 13.332031 3.273438 13.296875 3.257812 C 13.371094 3.21875 13.4375 3.171875 13.496094 3.117188 C 13.546875 3.070312 13.589844 3.011719 13.632812 2.9375 C 13.671875 2.859375 13.695312 2.773438 13.695312 2.667969 C 13.695312 2.574219 13.671875 2.492188 13.632812 2.417969 C 13.589844 2.34375 13.53125 2.28125 13.457031 2.234375 C 13.382812 2.183594 13.292969 2.148438 13.191406 2.121094 C 13.085938 2.09375 12.976562 2.078125 12.855469 2.078125 Z M 12.980469 0.625 C 14.375 0.625 15.507812 1.753906 15.507812 3.148438 C 15.507812 4.546875 14.375 5.679688 12.980469 5.679688 C 11.585938 5.679688 10.453125 4.546875 10.453125 3.148438 C 10.453125 1.753906 11.585938 0.625 12.980469 0.625 Z M 12.980469 0.625 "/>
</g>
<g clip-path="url(#clip3)" clip-rule="nonzero">
<path style=" stroke:none;fill-rule:evenodd;fill:rgb(16.078431%,50.196078%,72.54902%);fill-opacity:1;" d="M 3.132812 2.128906 C 3.03125 2.128906 2.957031 2.136719 2.921875 2.152344 C 2.890625 2.171875 2.871094 2.191406 2.871094 2.210938 L 2.871094 3.882812 C 2.871094 3.90625 2.890625 3.925781 2.921875 3.945312 C 2.957031 3.960938 3.03125 3.96875 3.132812 3.96875 C 3.238281 3.96875 3.308594 3.960938 3.34375 3.945312 C 3.382812 3.925781 3.398438 3.90625 3.398438 3.882812 L 3.398438 2.210938 C 3.398438 2.191406 3.382812 2.171875 3.34375 2.152344 C 3.308594 2.136719 3.238281 2.128906 3.132812 2.128906 Z M 3.125 0.625 C 4.523438 0.625 5.65625 1.753906 5.65625 3.148438 C 5.65625 4.546875 4.523438 5.679688 3.125 5.679688 C 1.726562 5.679688 0.589844 4.546875 0.589844 3.148438 C 0.589844 1.753906 1.726562 0.625 3.125 0.625 Z M 3.125 0.625 "/>
</g>
</g>
</svg>
