<svg xmlns="http://www.w3.org/2000/svg" xmlns:xlink="http://www.w3.org/1999/xlink" version="1.1" width="40px" height="40px" viewBox="0 0 436 436">
<path transform="matrix(1,0,0,-1,130,310)" d="M6 178H170V182H6V178ZM174 174V10H178V174H174ZM170 6H6.000005V2H170V6ZM2 10V174H-2V10H2ZM6.000005 6C3.790864 6 2 7.790863 2 10H-2C-2 5.581726 1.581729 2 6.000005 2V6ZM174 10C174 7.790863 172.20914 6 170 6V2C174.41828 2 178 5.581726 178 10H174ZM170 178C172.20914 178 174 176.20914 174 174H178C178 178.41828 174.41828 182 170 182V178ZM6 182C1.58172 182-2 178.41828-2 174H2C2 176.20914 3.790863 178 6 178V182Z" fill="#1e1e1e"/>
<path transform="matrix(1,0,0,-1,165.5,217.20001)" d="M0-34.671998ZM11.712001 28.592007 3.84 29.936005V36.656007H36.192V29.936005L28.128003 28.592007V-27.376L36.192-28.432V-34.671998H3.936V-28.335999L11.712001-27.279999V28.592007Z" fill="#7a219e"/>
<text xml:space="preserve" transform="matrix(1 0 -0 1 165.5 217.20001)" font-size="96" font-family="Unnamed"><tspan y="34.671998" x="0">I</tspan></text>
<path transform="matrix(1,0,0,-1,184.5,233.87201)" d="M0-33.999994ZM3.264-27.663994 10.656001-26.703995V29.360009L3.648 30.70401V37.32801H18.432C19.648 37.32801 20.960001 37.360013 22.368 37.42401 23.84 37.48801 24.960001 37.552015 25.728 37.616014 29.184002 37.872014 32.128004 38.000017 34.56 38.000017 41.408 38.000017 46.848005 37.328016 50.880006 35.98401 54.912008 34.70401 57.824007 32.65601 59.616006 29.840012 61.472005 27.088013 62.4 23.44001 62.4 18.896008 62.4 14.544006 61.248 10.480007 58.944 6.70401 56.64 2.928009 53.248 .336006 48.768-1.071991 51.712-2.159996 54.176004-4.207993 56.160005-7.215988 58.208005-10.159988 60.320005-13.935989 62.496004-18.543992 63.776-21.231987 64.8-23.247994 65.568-24.591996 66.336-25.871994 67.136-26.607995 67.968-26.799996L70.75201-27.663994V-33.999994H52.512006C51.552003-33.999994 50.56-32.97599 49.536005-30.927994 48.512-28.879998 47.2-25.679993 45.600004-21.327996 43.616006-16.015992 41.888006-11.919991 40.416006-9.039993 39.008005-6.095993 37.440004-4.303993 35.712-3.663994H27.072V-26.703995L35.616-27.663994V-33.999994H3.264V-27.663994ZM34.464006 2.576012C37.792005 2.576012 40.384004 3.85601 42.24 6.416008 44.096 9.040009 45.024003 12.976009 45.024003 18.22401 45.024003 22.832013 44.096 26.192013 42.24 28.304013 40.448 30.480011 37.408 31.568009 33.120004 31.568009 30.816002 31.568009 28.800002 31.408009 27.072 31.088013V2.864006C27.904002 2.672012 29.28 2.576012 31.2 2.576012 33.120004 2.576012 34.208005 2.576012 34.464006 2.576012Z" fill="#4d22b2"/>
<text xml:space="preserve" transform="matrix(1 0 -0 1 184.5 233.87201)" font-size="96" font-family="Unnamed"><tspan y="33.999994" x="0">R</tspan></text>
</svg>
