<svg width="1143" height="1143" xmlns="http://www.w3.org/2000/svg" xmlns:xlink="http://www.w3.org/1999/xlink" xml:space="preserve" overflow="hidden"><defs><linearGradient x1="1356.33" y1="1437.81" x2="2659.67" y2="1912.19" gradientUnits="userSpaceOnUse" spreadMethod="reflect" id="fill0"><stop offset="0" stop-color="#2980B9"/><stop offset="0.2" stop-color="#2980B9"/><stop offset="0.68" stop-color="#C0392B"/><stop offset="1" stop-color="#C0392B"/></linearGradient></defs><g transform="translate(-1437 -1103)"><path d="M2301.55 1868.99C2280.15 1790.12 2209.02 1735.42 2127.85 1735.43L1887.86 1735.43C1741.95 1735.41 1617.2 1629.67 1592.26 1484.86 1497.72 1453.79 1446.08 1351.42 1476.93 1256.19 1501.07 1181.65 1570.03 1131.18 1647.87 1131.08 1747.28 1131 1827.93 1212.11 1828 1312.25 1828.06 1386.7 1782.92 1453.63 1714.17 1481 1735.57 1559.86 1806.7 1614.56 1887.86 1614.56L2127.85 1614.56C2192.78 1614.46 2255.97 1635.68 2307.85 1674.99L2307.85 1483.41C2214.09 1450.04 2164.95 1346.42 2198.08 1251.98 2231.22 1157.54 2334.08 1108.04 2427.84 1141.41 2521.6 1174.79 2570.74 1278.41 2537.61 1372.85 2519.48 1424.51 2479.13 1465.16 2427.84 1483.41L2427.84 1866.57C2521.61 1899.92 2570.79 2003.52 2537.68 2097.97 2504.57 2192.42 2401.72 2241.95 2307.95 2208.6 2214.19 2175.26 2165.01 2071.66 2198.12 1977.21 2215.44 1927.77 2253.16 1888.31 2301.55 1868.99ZM2367.84 1977.16C2334.71 1977.16 2307.85 2004.22 2307.85 2037.6 2307.85 2070.98 2334.71 2098.03 2367.84 2098.03 2400.98 2098.03 2427.84 2070.98 2427.84 2037.6 2427.84 2004.22 2400.98 1977.16 2367.84 1977.16ZM2371.77 1173.33C2331.47 1167.44 2255.44 1260.14 2252.82 1304.52 2250.2 1348.91 2315.75 1433.75 2356.05 1439.64 2396.36 1445.54 2492.04 1384.28 2494.66 1339.9 2497.28 1295.52 2412.08 1179.23 2371.77 1173.33ZM1651.8 1189.06C1618.67 1189.06 1586.57 1268.65 1587.88 1312.38 1589.19 1356.11 1626.53 1451.44 1659.66 1451.44 1692.8 1451.44 1709.18 1356.11 1707.87 1312.38 1706.56 1268.65 1684.94 1189.06 1651.8 1189.06Z" fill="url(#fill0)" fill-rule="evenodd"/><path d="M2364.02 1262.05C2370.78 1262.05 2375.54 1263.47 2378.31 1266.31 2381.09 1269.15 2382.47 1274.36 2382.47 1281.94 2382.47 1285.86 2381.9 1289.21 2380.75 1291.98 2379.6 1294.76 2378.04 1296.99 2376.08 1298.68 2374.12 1300.37 2371.83 1301.62 2369.19 1302.43 2366.56 1303.24 2363.75 1303.65 2360.78 1303.65 2358.21 1303.65 2356.49 1303.14 2355.61 1302.13 2354.73 1301.11 2354.29 1299.59 2354.29 1297.56L2354.29 1269.97C2354.29 1268.88 2354.29 1267.87 2354.29 1266.92 2354.29 1265.98 2354.6 1265.16 2355.2 1264.49 2355.81 1263.81 2356.79 1263.24 2358.14 1262.76 2359.49 1262.29 2361.45 1262.05 2364.02 1262.05ZM2361.79 1234.46C2355.98 1234.46 2350.3 1234.86 2344.76 1235.67 2339.22 1236.49 2334.29 1237.53 2329.96 1238.82 2325.64 1240.1 2322.19 1241.52 2319.63 1243.08 2317.06 1244.64 2315.77 1246.16 2315.77 1247.65L2315.77 1366.15C2315.77 1367.77 2317.06 1369.23 2319.63 1370.51 2322.19 1371.8 2327.33 1372.44 2335.03 1372.44 2342.74 1372.44 2347.87 1371.8 2350.44 1370.51 2353.01 1369.23 2354.29 1367.77 2354.29 1366.15L2354.29 1332.67C2354.29 1331.99 2354.7 1331.65 2355.51 1331.65L2355.71 1331.65C2358.68 1331.65 2361.08 1332.7 2362.91 1334.8 2364.73 1336.9 2366.46 1339.53 2368.08 1342.71 2369.7 1345.89 2371.35 1349.31 2373.04 1352.96 2374.73 1356.61 2376.86 1360.03 2379.43 1363.21 2382 1366.39 2385.24 1369.02 2389.16 1371.12 2393.08 1373.22 2398.01 1374.27 2403.96 1374.27 2408.28 1374.27 2412.41 1373.66 2416.33 1372.44 2420.24 1371.22 2423.69 1369.73 2426.66 1367.98 2429.64 1366.22 2432.04 1364.39 2433.86 1362.5 2435.69 1360.6 2436.6 1358.98 2436.6 1357.63 2436.6 1356 2436.12 1354.95 2435.18 1354.48 2434.23 1354.01 2433.08 1353.77 2431.73 1353.77L2429.3 1353.97 2428.08 1353.97C2424.3 1353.97 2420.89 1352.49 2417.85 1349.51 2414.8 1346.53 2411.97 1343.15 2409.33 1339.36 2406.7 1335.58 2404.16 1331.92 2401.73 1328.41 2399.3 1324.89 2396.8 1322.52 2394.23 1321.3 2399.63 1318.6 2404.5 1315.22 2408.82 1311.16 2412.34 1307.64 2415.62 1303.14 2418.66 1297.66 2421.7 1292.19 2423.22 1285.59 2423.22 1277.88 2423.22 1270.98 2421.7 1264.83 2418.66 1259.41 2415.62 1254 2411.36 1249.47 2405.88 1245.82 2400.41 1242.17 2393.92 1239.36 2386.42 1237.4 2378.92 1235.44 2370.71 1234.46 2361.79 1234.46ZM2371 1127C2473.17 1127 2556 1210.5 2556 1313.5 2556 1416.5 2473.17 1500 2371 1500 2268.83 1500 2186 1416.5 2186 1313.5 2186 1210.5 2268.83 1127 2371 1127Z" fill="#C0392B" fill-rule="evenodd"/><path d="M1650.26 1238C1642.54 1238 1637.39 1238.64 1634.81 1239.92 1632.24 1241.21 1630.95 1242.66 1630.95 1244.29L1630.95 1367.66C1630.95 1369.28 1632.24 1370.74 1634.81 1372.02 1637.39 1373.31 1642.54 1373.95 1650.26 1373.95 1657.99 1373.95 1663.14 1373.31 1665.71 1372.02 1668.29 1370.74 1669.57 1369.28 1669.57 1367.66L1669.57 1244.29C1669.57 1242.66 1668.29 1241.21 1665.71 1239.92 1663.14 1238.64 1657.99 1238 1650.26 1238ZM1649.5 1127C1751.95 1127 1835 1210.5 1835 1313.5 1835 1416.5 1751.95 1500 1649.5 1500 1547.05 1500 1464 1416.5 1464 1313.5 1464 1210.5 1547.05 1127 1649.5 1127Z" fill="#2980B9" fill-rule="evenodd"/></g></svg>