<?xml version="1.0" encoding="UTF-8"?>
<svg xmlns="http://www.w3.org/2000/svg" xmlns:xlink="http://www.w3.org/1999/xlink" width="40px" height="40px" viewBox="0 0 40 40" version="1.1">
<defs>
<clipPath id="clip1">
  <path d="M 1.175781 1.558594 L 38.769531 1.558594 L 38.769531 38.851562 L 1.175781 38.851562 Z M 1.175781 1.558594 "/>
</clipPath>
<linearGradient id="linear0" gradientUnits="userSpaceOnUse" x1="-12.1278" y1="35.0087" x2="134.677" y2="88.4416" spreadMethod="reflect" gradientTransform="matrix(0.303197,0,0,0.300752,1.47489,1.557895)">
<stop offset="0" style="stop-color:rgb(16.078431%,50.196078%,72.54902%);stop-opacity:1;"/>
<stop offset="0.2" style="stop-color:rgb(16.078431%,50.196078%,72.54902%);stop-opacity:1;"/>
<stop offset="0.68" style="stop-color:rgb(75.294118%,22.352941%,16.862745%);stop-opacity:1;"/>
<stop offset="1" style="stop-color:rgb(75.294118%,22.352941%,16.862745%);stop-opacity:1;"/>
</linearGradient>
<clipPath id="clip2">
  <path d="M 26 1.558594 L 38.769531 1.558594 L 38.769531 15 L 26 15 Z M 26 1.558594 "/>
</clipPath>
<clipPath id="clip3">
  <path d="M 1.175781 1.558594 L 15 1.558594 L 15 15 L 1.175781 15 Z M 1.175781 1.558594 "/>
</clipPath>
</defs>
<g id="surface1">
<g clip-path="url(#clip1)" clip-rule="nonzero">
<path style=" stroke:none;fill-rule:evenodd;fill:url(#linear0);" d="M 30.082031 26.691406 C 29.347656 24.019531 26.914062 22.164062 24.144531 22.164062 L 15.953125 22.164062 C 10.964844 22.164062 6.707031 18.589844 5.855469 13.679688 C 2.625 12.628906 0.863281 9.160156 1.914062 5.933594 C 2.742188 3.410156 5.097656 1.699219 7.753906 1.695312 C 11.144531 1.695312 13.90625 4.441406 13.90625 7.832031 C 13.910156 10.355469 12.367188 12.625 10.015625 13.550781 C 10.75 16.222656 13.179688 18.074219 15.953125 18.074219 L 24.144531 18.074219 C 26.367188 18.070312 28.523438 18.789062 30.292969 20.121094 L 30.292969 13.632812 C 27.09375 12.5 25.414062 8.992188 26.546875 5.792969 C 27.675781 2.589844 31.1875 0.914062 34.390625 2.046875 C 37.589844 3.175781 39.269531 6.6875 38.140625 9.882812 C 37.523438 11.636719 36.140625 13.015625 34.390625 13.632812 L 34.390625 26.613281 C 37.59375 27.742188 39.273438 31.25 38.140625 34.449219 C 37.011719 37.652344 33.5 39.328125 30.296875 38.199219 C 27.097656 37.070312 25.417969 33.558594 26.546875 30.363281 C 27.132812 28.683594 28.425781 27.347656 30.082031 26.691406 Z M 32.34375 30.359375 C 31.210938 30.359375 30.292969 31.273438 30.292969 32.40625 C 30.292969 33.535156 31.210938 34.453125 32.34375 34.453125 C 33.472656 34.453125 34.390625 33.535156 34.390625 32.40625 C 34.390625 31.273438 33.472656 30.359375 32.34375 30.359375 Z M 32.476562 3.128906 C 31.105469 2.925781 28.507812 6.066406 28.414062 7.570312 C 28.324219 9.074219 30.5625 11.945312 31.9375 12.152344 C 33.316406 12.347656 36.582031 10.277344 36.671875 8.765625 C 36.761719 7.265625 33.851562 3.328125 32.476562 3.128906 Z M 7.890625 3.660156 C 6.753906 3.660156 5.660156 6.355469 5.707031 7.835938 C 5.753906 9.316406 7.027344 12.546875 8.160156 12.546875 C 9.289062 12.546875 9.847656 9.316406 9.804688 7.835938 C 9.761719 6.355469 9.023438 3.660156 7.890625 3.660156 Z M 7.890625 3.660156 "/>
</g>
<g clip-path="url(#clip2)" clip-rule="nonzero">
<path style=" stroke:none;fill-rule:evenodd;fill:rgb(75.294118%,22.352941%,16.862745%);fill-opacity:1;" d="M 32.210938 6.128906 C 32.445312 6.128906 32.605469 6.183594 32.703125 6.273438 C 32.796875 6.375 32.84375 6.550781 32.84375 6.808594 C 32.84375 6.941406 32.820312 7.054688 32.785156 7.144531 C 32.742188 7.242188 32.691406 7.316406 32.625 7.375 C 32.554688 7.429688 32.480469 7.46875 32.386719 7.5 C 32.300781 7.53125 32.199219 7.539062 32.097656 7.539062 C 32.011719 7.539062 31.953125 7.527344 31.925781 7.492188 C 31.898438 7.457031 31.882812 7.402344 31.882812 7.332031 L 31.882812 6.402344 C 31.882812 6.363281 31.882812 6.332031 31.882812 6.296875 C 31.882812 6.265625 31.890625 6.238281 31.910156 6.214844 C 31.933594 6.195312 31.964844 6.175781 32.011719 6.15625 C 32.054688 6.140625 32.125 6.128906 32.210938 6.128906 Z M 32.136719 5.199219 C 31.9375 5.199219 31.742188 5.210938 31.554688 5.238281 C 31.363281 5.265625 31.195312 5.300781 31.046875 5.347656 C 30.902344 5.390625 30.78125 5.4375 30.695312 5.492188 C 30.605469 5.542969 30.5625 5.59375 30.5625 5.644531 L 30.5625 9.660156 C 30.5625 9.714844 30.605469 9.761719 30.695312 9.804688 C 30.78125 9.851562 30.957031 9.875 31.222656 9.875 C 31.484375 9.875 31.660156 9.851562 31.746094 9.804688 C 31.835938 9.761719 31.882812 9.714844 31.882812 9.660156 L 31.882812 8.527344 C 31.882812 8.503906 31.894531 8.488281 31.921875 8.488281 L 31.929688 8.488281 C 32.03125 8.488281 32.113281 8.527344 32.171875 8.597656 C 32.234375 8.667969 32.296875 8.757812 32.351562 8.867188 C 32.40625 8.976562 32.460938 9.089844 32.519531 9.210938 C 32.578125 9.335938 32.648438 9.449219 32.738281 9.5625 C 32.824219 9.667969 32.9375 9.753906 33.070312 9.828125 C 33.203125 9.898438 33.371094 9.933594 33.578125 9.933594 C 33.726562 9.933594 33.867188 9.914062 33.996094 9.875 C 34.128906 9.832031 34.25 9.777344 34.347656 9.722656 C 34.453125 9.660156 34.535156 9.597656 34.601562 9.535156 C 34.660156 9.472656 34.6875 9.417969 34.6875 9.375 C 34.6875 9.3125 34.671875 9.28125 34.640625 9.265625 C 34.609375 9.25 34.566406 9.238281 34.527344 9.238281 L 34.441406 9.246094 L 34.398438 9.246094 C 34.269531 9.246094 34.15625 9.195312 34.050781 9.097656 C 33.945312 8.996094 33.847656 8.878906 33.757812 8.75 C 33.667969 8.621094 33.582031 8.503906 33.5 8.382812 C 33.417969 8.261719 33.328125 8.179688 33.246094 8.140625 C 33.429688 8.046875 33.59375 7.933594 33.742188 7.796875 C 33.863281 7.679688 33.976562 7.527344 34.078125 7.339844 C 34.183594 7.152344 34.234375 6.929688 34.234375 6.671875 C 34.234375 6.433594 34.183594 6.226562 34.078125 6.046875 C 33.976562 5.859375 33.832031 5.703125 33.640625 5.582031 C 33.453125 5.460938 33.230469 5.367188 32.976562 5.300781 C 32.71875 5.230469 32.4375 5.199219 32.136719 5.199219 Z M 32.449219 1.558594 C 35.941406 1.558594 38.769531 4.386719 38.769531 7.875 C 38.769531 11.367188 35.941406 14.195312 32.449219 14.195312 C 28.960938 14.195312 26.128906 11.367188 26.128906 7.875 C 26.128906 4.386719 28.960938 1.558594 32.449219 1.558594 Z M 32.449219 1.558594 "/>
</g>
<g clip-path="url(#clip3)" clip-rule="nonzero">
<path style=" stroke:none;fill-rule:evenodd;fill:rgb(16.078431%,50.196078%,72.54902%);fill-opacity:1;" d="M 7.835938 5.320312 C 7.574219 5.320312 7.394531 5.339844 7.308594 5.382812 C 7.222656 5.425781 7.175781 5.476562 7.175781 5.53125 L 7.175781 9.710938 C 7.175781 9.765625 7.222656 9.816406 7.308594 9.859375 C 7.394531 9.902344 7.574219 9.921875 7.835938 9.921875 C 8.097656 9.921875 8.273438 9.902344 8.363281 9.859375 C 8.453125 9.816406 8.496094 9.765625 8.496094 9.710938 L 8.496094 5.53125 C 8.496094 5.476562 8.453125 5.425781 8.363281 5.382812 C 8.273438 5.339844 8.097656 5.320312 7.835938 5.320312 Z M 7.808594 1.558594 C 11.308594 1.558594 14.144531 4.386719 14.144531 7.875 C 14.144531 11.367188 11.308594 14.195312 7.808594 14.195312 C 4.3125 14.195312 1.476562 11.367188 1.476562 7.875 C 1.476562 4.386719 4.3125 1.558594 7.808594 1.558594 Z M 7.808594 1.558594 "/>
</g>
</g>
</svg>
